<svg width="30" height="35" viewBox="0 0 30 35" fill="none" xmlns="http://www.w3.org/2000/svg">
<mask id="mask0_0_67" style="mask-type:luminance" maskUnits="userSpaceOnUse" x="0" y="0" width="30" height="35">
<path d="M29.0814 0.77832H0.593994V34.32H29.0814V0.77832Z" fill="white"/>
</mask>
<g mask="url(#mask0_0_67)">
<path d="M29.0818 9.19197L14.8412 0.77832V6.60022L29.0818 14.9768V9.19077V9.19197Z" fill="#FF6492"/>
<path d="M29.0818 14.9766L24.8096 17.5146L14.8379 11.6341L9.14056 14.9815L4.86728 12.6299L14.8401 6.6001L29.0818 14.9766Z" fill="#141446"/>
<path d="M9.14056 14.9813L4.86728 12.6299V17.5145L9.14056 14.9813Z" fill="#A14474"/>
<path d="M0.593994 25.8374L14.8379 17.5146L29.0818 25.8374L14.8379 34.251L0.593994 25.8374Z" fill="#141446"/>
<path d="M29.0818 20.0611L14.8379 11.5435V17.5148L29.0818 25.8376V20.0611Z" fill="#FF6492"/>
<path d="M4.86728 17.5147V12.6301L14.8401 6.60022V0.77832L0.593994 9.19197V25.8375L14.8379 17.5147V11.5434L4.86728 17.5147Z" fill="#7A77FF"/>
</g>
</svg>
