<svg width="53" height="53" viewBox="0 0 53 53" fill="none" xmlns="http://www.w3.org/2000/svg">
<mask id="mask0_0_251" style="mask-type:luminance" maskUnits="userSpaceOnUse" x="0" y="0" width="53" height="53">
<path d="M52.4722 0.643555H0.780762V52.335H52.4722V0.643555Z" fill="white"/>
</mask>
<g mask="url(#mask0_0_251)">
<path d="M26.6268 0.643555C12.3469 0.643555 0.780762 12.2095 0.780762 26.4892C0.780762 33.1445 3.38992 39.3288 7.82061 44.222C8.73943 45.2403 10.223 45.2785 11.1929 44.3085L24.1385 31.3631C24.8951 30.6064 26.1836 31.1383 26.1836 32.2083L26.1738 50.0088C26.1738 51.3147 27.0649 52.2057 28.3708 52.2057C38.3861 52.2057 52.4722 42.8366 52.4722 26.4892C52.4729 12.2095 40.9067 0.643555 26.6268 0.643555ZM6.46689 26.4892C6.46689 15.3756 15.513 6.32961 26.6268 6.32961C37.7405 6.32961 46.7867 15.3756 46.7867 26.4892C46.7867 30.3661 45.6436 34.2204 43.5372 37.4743C43.4874 37.5493 43.3815 37.5589 43.3162 37.4976L28.2415 22.4179C27.3363 21.5126 25.9148 21.5126 25.0108 22.4179L9.93479 37.4911C9.87147 37.5545 9.76352 37.5421 9.71381 37.4679C7.60734 34.2132 6.46559 30.3661 6.46559 26.4892H6.46689Z" fill="#191919"/>
</g>
</svg>
