<svg width="34" height="33" viewBox="0 0 34 33" fill="none" xmlns="http://www.w3.org/2000/svg">
<mask id="mask0_0_61" style="mask-type:luminance" maskUnits="userSpaceOnUse" x="0" y="0" width="34" height="33">
<path d="M33.2441 0.143066H0.431641V32.9556H33.2441V0.143066Z" fill="white"/>
</mask>
<g mask="url(#mask0_0_61)">
<path d="M16.8381 0.143066C7.77355 0.143066 0.431641 7.48485 0.431641 16.5493C0.431641 20.7739 2.08787 24.6995 4.90037 27.8056C5.48362 28.452 6.42534 28.4763 7.04101 27.8606L15.2586 19.6431C15.7389 19.1628 16.5567 19.5004 16.5567 20.1796L16.5506 31.479C16.5506 32.3079 17.1162 32.8735 17.9451 32.8735C24.3026 32.8735 33.2441 26.9263 33.2441 16.5493C33.2446 7.48485 25.9027 0.143066 16.8381 0.143066ZM4.04106 16.5493C4.04106 9.49461 9.78331 3.75244 16.8381 3.75244C23.8929 3.75244 29.6351 9.49461 29.6351 16.5493C29.6351 19.0102 28.9096 21.4568 27.5724 23.5224C27.5408 23.57 27.4736 23.5761 27.4322 23.5372L17.8631 13.9649C17.2885 13.3903 16.3861 13.3903 15.8123 13.9649L6.24241 23.5331C6.20221 23.5733 6.13369 23.5654 6.10213 23.5183C4.765 21.4523 4.04024 19.0102 4.04024 16.5493H4.04106Z" fill="#191919"/>
</g>
</svg>
