<svg width="46" height="53" viewBox="0 0 46 53" fill="none" xmlns="http://www.w3.org/2000/svg">
<mask id="mask0_0_257" style="mask-type:luminance" maskUnits="userSpaceOnUse" x="0" y="0" width="46" height="53">
<path d="M45.4775 0.0693359H0.599625V52.9094H45.4775V0.0693359Z" fill="white"/>
</mask>
<g mask="url(#mask0_0_257)">
<path d="M45.4781 13.3238L23.044 0.0693359V9.24091L45.4781 22.437V13.3219V13.3238Z" fill="#FF6492"/>
<path d="M45.4781 22.4373L38.7479 26.4355L23.0388 17.1716L14.0635 22.4448L7.33156 18.7404L23.0423 9.24121L45.4781 22.4373Z" fill="#141446"/>
<path d="M14.0635 22.4446L7.33157 18.7402V26.4353L14.0635 22.4446Z" fill="#A14474"/>
<path d="M0.599625 39.5459L23.0389 26.4346L45.4781 39.5459L23.0389 52.8004L0.599625 39.5459Z" fill="#141446"/>
<path d="M45.4783 30.4466L23.0391 17.0283V26.4353L45.4783 39.5466V30.4466Z" fill="#FF6492"/>
<path d="M7.33158 26.4352V18.7402L23.0423 9.24091V0.0693359L0.599625 13.3238V39.5465L23.0389 26.4352V17.0282L7.33158 26.4352Z" fill="#7A77FF"/>
</g>
</svg>
