<svg width="301" height="61" viewBox="0 0 301 61" fill="none" xmlns="http://www.w3.org/2000/svg">
<path d="M65.945 15.5254H72.373C74.0298 15.5254 75.373 16.8685 75.373 18.5254V41.0107C75.373 42.6675 74.0298 44.0107 72.373 44.0107H49.8877C48.2308 44.0107 46.8877 42.6675 46.8877 41.0107V34.3817" stroke="black" stroke-width="1.8"/>
<path d="M62.7881 5.93555H40.2881C38.6312 5.93555 37.2881 7.27869 37.2881 8.93555V31.4355C37.2881 33.0924 38.6312 34.4355 40.2881 34.4355H62.7881C64.4449 34.4355 65.7881 33.0924 65.7881 31.4355V8.93555C65.7881 7.27869 64.4449 5.93555 62.7881 5.93555Z" stroke="black" stroke-width="1.8"/>
<path d="M45.7793 14.4912H51.5381M51.5381 14.4912H57.2968M51.5381 14.4912V27.1379" stroke="black" stroke-width="1.8" stroke-linecap="round"/>
</svg>
