<svg width="301" height="61" viewBox="0 0 301 61" fill="none" xmlns="http://www.w3.org/2000/svg">
<path d="M64.886 22.2983C68.5034 22.2983 71.436 19.3657 71.436 15.7483C71.436 12.1308 68.5034 9.19824 64.886 9.19824C61.2685 9.19824 58.3359 12.1308 58.3359 15.7483C58.3359 19.3657 61.2685 22.2983 64.886 22.2983Z" stroke="black" stroke-width="1.8"/>
<path d="M46.1209 25.0534C49.7573 25.0534 52.7052 22.1055 52.7052 18.4691C52.7052 14.8327 49.7573 11.8848 46.1209 11.8848C42.4845 11.8848 39.5366 14.8327 39.5366 18.4691C39.5366 22.1055 42.4845 25.0534 46.1209 25.0534Z" stroke="black" stroke-width="1.8"/>
<path d="M78.0131 40.1593C76.5524 33.9584 71.6166 28.9316 64.886 28.9316C58.1553 28.9316 53.2195 33.9584 51.7588 40.1593" stroke="black" stroke-width="1.8" stroke-linecap="round"/>
<path fill-rule="evenodd" clip-rule="evenodd" d="M55.1611 33.1473C52.9053 30.7478 49.8024 29.1992 46.1213 29.1992C39.5809 29.1992 34.8656 34.0876 33.4841 39.952C33.3702 40.4359 33.67 40.9205 34.1538 41.0344C34.6376 41.1484 35.1222 40.8486 35.2362 40.3648C36.4721 35.1181 40.6011 30.9992 46.1213 30.9992C49.3464 30.9992 52.0965 32.4052 54.0725 34.6205C54.4039 34.1034 54.7679 33.6113 55.1611 33.1473Z" fill="black"/>
</svg>
