<svg width="701" height="331" viewBox="0 0 701 331" fill="none" xmlns="http://www.w3.org/2000/svg">
<g clip-path="url(#clip0_0_273)">
<g clip-path="url(#clip1_0_273)">
<g clip-path="url(#clip2_0_273)">
<path d="M603.104 39.4322C605.397 39.4322 605.397 39.7207 607.69 39.7207C609.984 39.7207 609.984 39.291 612.277 39.291C614.57 39.291 614.57 39.555 616.863 39.555C619.157 39.555 619.157 39.377 621.45 39.377" stroke="black" stroke-width="1.21006" stroke-linecap="round" stroke-linejoin="round"/>
<path d="M635.903 39.5128C638.197 39.5128 638.197 39.4636 640.489 39.4636C642.783 39.4636 642.783 39.7399 645.076 39.7399C647.37 39.7399 647.37 39.4268 649.663 39.4268C651.956 39.4268 651.956 39.5434 654.25 39.5434" stroke="black" stroke-width="1.21006" stroke-linecap="round" stroke-linejoin="round"/>
<path d="M629.403 31.5474C629.403 29.4327 629.183 29.4327 629.183 27.318C629.183 25.2033 629.373 25.2033 629.373 23.0946C629.373 20.986 629.324 20.9799 629.324 18.8651C629.324 16.7504 629.637 16.7504 629.637 14.6357C629.637 12.521 629.207 12.521 629.207 10.4062" stroke="black" stroke-width="1.21006" stroke-linecap="round" stroke-linejoin="round"/>
<path d="M629.71 76.6226C629.71 74.3673 629.299 74.3673 629.299 72.112C629.299 69.8567 629.232 69.8567 629.232 67.6014C629.232 65.3461 629.293 65.3461 629.293 63.0908C629.293 60.8354 629.63 60.8354 629.63 58.5802C629.63 56.3249 629.68 56.3249 629.68 54.0696C629.68 51.8142 629.594 51.8142 629.594 49.5528C629.594 47.2914 629.171 47.2976 629.171 45.0361" stroke="black" stroke-width="1.21006" stroke-linecap="round" stroke-linejoin="round"/>
<path d="M629.164 6.97735C629.164 4.30032 629.146 4.30032 629.146 1.61719" stroke="black" stroke-width="1.21006" stroke-linecap="round" stroke-linejoin="round"/>
<path d="M1.28156 73.7585C3.92618 73.7585 3.92617 73.7797 6.5708 73.7797C9.21543 73.7797 9.21546 73.624 11.8601 73.624C14.5047 73.624 14.5047 73.893 17.1493 73.893C19.7939 73.893 19.7939 73.624 22.4386 73.624" stroke="black" stroke-width="1.21006" stroke-linecap="round" stroke-linejoin="round"/>
<path d="M12.0228 84.9449C12.0228 83.1687 12.0228 81.3926 12.0228 79.6165C12.0228 76.9523 11.7467 76.9523 11.7467 74.2881" stroke="black" stroke-width="1.21006" stroke-linecap="round" stroke-linejoin="round"/>
<path d="M11.7255 70.5171C11.7255 67.4301 11.7892 67.4301 11.7892 64.3359" stroke="black" stroke-width="1.21006" stroke-linecap="round" stroke-linejoin="round"/>
<path d="M699.394 106.104C697.528 108.303 697.514 108.286 695.647 110.493C693.78 112.692 693.886 112.825 692.019 115.025C690.146 117.231 689.961 117.006 688.088 119.213C686.214 121.42 686.405 121.637 684.531 123.844" stroke="black" stroke-width="1.21006" stroke-linecap="round" stroke-linejoin="round"/>
<path d="M683.859 105.691C685.118 107.174 686.379 108.657 687.642 110.139C689.53 112.363 689.728 112.138 691.616 114.37" stroke="black" stroke-width="1.21006" stroke-linecap="round" stroke-linejoin="round"/>
<path d="M694.303 117.509C696.495 120.09 696.446 120.14 698.638 122.722" stroke="black" stroke-width="1.21006" stroke-linecap="round" stroke-linejoin="round"/>
<path d="M167.24 278.144C164.595 278.144 164.595 278.352 161.951 278.352C159.305 278.352 159.305 278.401 156.661 278.401C154.016 278.401 154.016 278.543 151.372 278.543C148.728 278.543 148.728 278.226 146.082 278.226" stroke="black" stroke-width="1.21006" stroke-linecap="round" stroke-linejoin="round"/>
<path d="M153.465 259.461C151.797 261.427 151.917 261.568 150.248 263.526C148.579 265.483 148.515 265.416 146.854 267.382C145.192 269.347 145.368 269.564 143.7 271.522" stroke="black" stroke-width="1.21006" stroke-linecap="round" stroke-linejoin="round"/>
<path d="M122.684 295.903C121.214 297.636 121.538 298.026 120.068 299.76C118.597 301.492 118.406 301.275 116.936 303.007" stroke="black" stroke-width="1.21006" stroke-linecap="round" stroke-linejoin="round"/>
<path d="M153.699 297.061C152.03 295.095 151.74 295.445 150.071 293.48C148.403 291.514 148.728 291.131 147.059 289.174C145.39 287.208 145.425 287.167 143.756 285.21" stroke="black" stroke-width="1.21006" stroke-linecap="round" stroke-linejoin="round"/>
<path d="M155.481 298.812C157.142 300.769 157.156 300.753 158.825 302.718" stroke="black" stroke-width="1.21006" stroke-linecap="round" stroke-linejoin="round"/>
<path d="M122.55 261.057C121.079 259.325 121.2 259.175 119.728 257.443C118.257 255.71 118.293 255.66 116.822 253.928" stroke="black" stroke-width="1.21006" stroke-linecap="round" stroke-linejoin="round"/>
<path d="M124.212 262.839C126.078 265.038 126.298 264.788 128.164 266.995C130.031 269.202 130.229 268.969 132.096 271.176" stroke="black" stroke-width="1.21006" stroke-linecap="round" stroke-linejoin="round"/>
<path d="M129.409 278.641C126.764 278.641 126.764 278.249 124.12 278.249C121.475 278.249 121.475 278.474 118.831 278.474C116.185 278.474 116.185 278.699 113.541 278.699C110.897 278.699 110.897 278.599 108.252 278.599" stroke="black" stroke-width="1.21006" stroke-linecap="round" stroke-linejoin="round"/>
<path d="M136.558 289.227C136.558 292.108 136.898 292.108 136.898 294.99C136.898 297.872 136.954 297.872 136.954 300.745C136.954 303.627 136.572 303.627 136.572 306.509C136.572 309.39 136.558 309.39 136.558 312.272C136.558 315.154 137.01 315.154 137.01 318.035" stroke="black" stroke-width="1.21006" stroke-linecap="round" stroke-linejoin="round"/>
<path d="M136.904 227.807C136.904 230.879 136.777 230.879 136.777 233.953C136.777 237.026 137.004 237.026 137.004 240.099C137.004 243.173 136.749 243.173 136.749 246.246C136.749 249.32 137.024 249.32 137.024 252.392C137.024 255.466 136.841 255.466 136.841 258.539C136.841 261.612 137.195 261.612 137.195 264.694C137.195 267.768 137.159 267.768 137.159 270.849" stroke="black" stroke-width="1.21006" stroke-linecap="round" stroke-linejoin="round"/>
<path d="M136.699 322.715C136.699 326.364 136.6 326.364 136.6 330.02" stroke="black" stroke-width="1.21006" stroke-linecap="round" stroke-linejoin="round"/>
</g>
</g>
</g>
<defs>
<clipPath id="clip0_0_273">
<rect width="700" height="330.44" fill="white" transform="translate(0.337891 0.283203)"/>
</clipPath>
<clipPath id="clip1_0_273">
<rect width="700" height="330.44" fill="white" transform="translate(0.337891 0.283203)"/>
</clipPath>
<clipPath id="clip2_0_273">
<rect width="699.974" height="330.44" fill="white" transform="translate(0.350739 0.283203)"/>
</clipPath>
</defs>
</svg>
