<svg width="33" height="33" viewBox="0 0 33 33" fill="none" xmlns="http://www.w3.org/2000/svg">
<g clip-path="url(#clip0_0_308)">
<path d="M16.3381 0.283203C7.49799 0.283203 0.337891 7.4432 0.337891 16.2832C0.337891 20.4032 1.95311 24.2316 4.69595 27.2608C5.26475 27.8912 6.18314 27.9148 6.78359 27.3144L14.7977 19.3004C15.2661 18.832 16.0637 19.1612 16.0637 19.8236L16.0577 30.8432C16.0577 31.6516 16.6093 32.2032 17.4177 32.2032C23.6178 32.2032 32.3379 26.4032 32.3379 16.2832C32.3383 7.4432 25.1782 0.283203 16.3381 0.283203ZM3.85794 16.2832C3.85794 9.4032 9.45799 3.8032 16.3381 3.8032C23.2182 3.8032 28.8182 9.4032 28.8182 16.2832C28.8182 18.6832 28.1106 21.0692 26.8066 23.0836C26.7758 23.13 26.7102 23.136 26.6698 23.098L17.3377 13.7628C16.7773 13.2024 15.8973 13.2024 15.3377 13.7628L6.00474 23.094C5.96554 23.1332 5.89874 23.1256 5.86794 23.0796C4.56395 21.0648 3.85714 18.6832 3.85714 16.2832H3.85794Z" fill="#17191C"/>
</g>
<defs>
<clipPath id="clip0_0_308">
<rect width="32" height="32" fill="white" transform="translate(0.337891 0.283203)"/>
</clipPath>
</defs>
</svg>
