<svg width="17" height="14" viewBox="0 0 17 14" fill="none" xmlns="http://www.w3.org/2000/svg">
<g clip-path="url(#clip0_0_315)">
<path d="M15.9379 2.2832C16.3379 3.6832 16.3379 6.6832 16.3379 6.6832C16.3379 6.6832 16.3379 9.6832 15.9379 11.0832C15.7379 11.8832 15.1379 12.4832 14.4379 12.6832C13.0379 13.0832 8.33789 13.0832 8.33789 13.0832C8.33789 13.0832 3.63789 13.0832 2.33789 12.6832C1.53789 12.4832 0.937891 11.8832 0.737891 11.0832C0.337891 9.6832 0.337891 6.6832 0.337891 6.6832C0.337891 6.6832 0.337891 3.6832 0.737891 2.2832C0.937891 1.4832 1.53789 0.883203 2.23789 0.683203C3.63789 0.283203 8.33789 0.283203 8.33789 0.283203C8.33789 0.283203 13.0379 0.283203 14.3379 0.683203C15.1379 0.883203 15.7379 1.4832 15.9379 2.2832ZM6.73789 9.4832L11.5379 6.6832L6.73789 3.8832V9.4832Z" fill="#17191C"/>
</g>
<defs>
<clipPath id="clip0_0_315">
<rect width="16" height="13" fill="white" transform="translate(0.337891 0.283203)"/>
</clipPath>
</defs>
</svg>
