<svg width="111" height="33" viewBox="0 0 111 33" fill="none" xmlns="http://www.w3.org/2000/svg">
<g clip-path="url(#clip0_0_10)">
<path d="M89.7598 22.2676C89.7678 22.2254 89.732 22.1827 89.6894 22.1784H86.8707C86.4355 23.7138 85.1352 24.4989 83.1998 24.4989C80.8744 24.4989 79.1491 22.764 78.8931 20.1774H89.6179C89.6552 19.8406 89.6835 19.3877 89.6835 19.0136C89.6835 15.2331 87.219 12.1872 82.9203 12.1872C78.6216 12.1872 76.0462 15.356 76.0462 19.5212C76.0462 23.6864 78.8675 27.0252 83.1987 27.0252C86.6062 27.0252 89.1827 25.1576 89.7598 22.2676ZM86.7544 17.9896H78.9864C79.4184 15.7512 80.7784 14.5698 82.9214 14.5698C85.0643 14.5698 86.5502 15.8787 86.7544 17.9896ZM74.6387 22.1796H71.82C71.3848 23.6853 70.0846 24.4989 68.1496 24.4989C65.8238 24.4989 64.0984 22.764 63.8424 20.1774H74.5672C74.6046 19.8395 74.6328 19.3869 74.6328 19.0136C74.6328 15.2394 72.163 12.1872 67.8707 12.1872C63.5784 12.1872 60.9971 15.368 60.9971 19.5212C60.9971 23.6744 63.8179 27.0252 68.1496 27.0252C71.5566 27.0252 74.1331 25.1576 74.7102 22.2676C74.7192 22.2195 74.6878 22.1807 74.6387 22.1796ZM71.7038 17.9896H63.9358C64.3683 15.7512 65.7278 14.5698 67.8707 14.5698C70.0136 14.5698 71.5 15.8787 71.7038 17.9896ZM49.9774 21.2111C49.9774 16.954 46.4519 16.07 43.3398 15.2906C40.8681 14.6708 38.7333 14.135 38.7333 12.0822C38.7333 10.4541 40.155 9.44266 42.4433 9.44266C44.7315 9.44266 46.2466 10.5893 46.5296 12.5466H49.5671C49.2495 8.95471 46.4271 6.6633 42.4444 6.6633C38.4617 6.6633 35.6169 8.89151 35.6169 12.0822C35.6169 16.1768 39.0991 17.1168 42.1717 17.9467C44.6569 18.6171 46.8032 19.1975 46.8032 21.239C46.8032 23.149 45.2767 24.2452 42.6132 24.2452C39.9497 24.2452 38.228 22.7179 38.0213 20.0752H34.992C35.2066 24.4821 38.2992 27.0237 42.6144 27.0237C46.9296 27.0237 49.9774 24.7418 49.9774 21.2111ZM98.6483 12.1842C96.8206 12.1853 95.1315 12.9935 94.2056 14.3033V12.4099H91.2862V32.5446H94.2056V25.0136C95.0979 26.2559 96.7326 27.022 98.5075 27.022C102.83 27.022 105.471 23.9187 105.471 19.5916C105.471 15.2644 102.796 12.1842 98.6483 12.1842ZM98.2536 14.7665C100.81 14.7665 102.511 16.7163 102.511 19.5916C102.511 22.4668 100.81 24.4417 98.2536 24.4417C95.6974 24.4417 93.98 22.5431 93.98 19.6041C93.98 16.665 95.6574 14.7665 98.2536 14.7665ZM56.3394 12.4643V7.95919H53.42V12.464H50.5183V15.0176H53.42V22.0563C53.42 24.9817 55.2585 26.7986 58.2179 26.7986H60.5374V24.2452H58.444C57.1059 24.2452 56.3394 23.416 56.3394 21.9715V15.0179H60.5374V12.4643H56.3394ZM14.4585 5.44287C8.16702 5.44287 3.07122 10.5387 3.07122 16.8301C3.07122 19.7623 4.22077 22.487 6.17283 24.6429C6.57765 25.0916 7.23127 25.1084 7.65858 24.6811L13.3622 18.9775C13.6955 18.6442 14.2632 18.8784 14.2632 19.3499L14.2589 27.1926C14.2589 27.7679 14.6515 28.1605 15.2268 28.1605C19.6394 28.1605 25.8455 24.0326 25.8455 16.8301C25.8458 10.5387 20.7499 5.44287 14.4585 5.44287ZM5.57642 16.8301C5.57642 11.9336 9.56194 7.94804 14.4585 7.94804C19.355 7.94804 23.3406 11.9336 23.3406 16.8301C23.3406 18.5382 22.837 20.2364 21.9089 21.67C21.887 21.703 21.8403 21.7073 21.8115 21.6803L15.1699 15.0364C14.7711 14.6375 14.1448 14.6375 13.7465 15.0364L7.10431 21.6774C7.0764 21.7053 7.02886 21.6999 7.00694 21.6672C6.07888 20.2332 5.57585 18.5382 5.57585 16.8301H5.57642Z" fill="black"/>
</g>
<defs>
<clipPath id="clip0_0_10">
<rect width="110" height="32" fill="white" transform="translate(0.337891 0.643066)"/>
</clipPath>
</defs>
</svg>
