<svg width="17" height="17" viewBox="0 0 17 17" fill="none" xmlns="http://www.w3.org/2000/svg">
<g clip-path="url(#clip0_0_313)">
<path d="M13.0046 0.783203H3.67122C1.83056 0.783203 0.337891 2.27587 0.337891 4.11654V13.4499C0.337891 15.2905 1.83056 16.7832 3.67122 16.7832H13.0046C14.8459 16.7832 16.3379 15.2905 16.3379 13.4499V4.11654C16.3379 2.27587 14.8459 0.783203 13.0046 0.783203ZM5.67122 13.4499H3.67122V6.11654H5.67122V13.4499ZM4.67122 5.2712C4.02722 5.2712 3.50456 4.74454 3.50456 4.0952C3.50456 3.44587 4.02722 2.9192 4.67122 2.9192C5.31522 2.9192 5.83789 3.44587 5.83789 4.0952C5.83789 4.74454 5.31589 5.2712 4.67122 5.2712ZM13.6712 13.4499H11.6712V9.71387C11.6712 7.46854 9.00456 7.63854 9.00456 9.71387V13.4499H7.00456V6.11654H9.00456V7.2932C9.93522 5.5692 13.6712 5.44187 13.6712 8.94387V13.4499Z" fill="#17191C"/>
</g>
<defs>
<clipPath id="clip0_0_313">
<rect width="16" height="16" fill="white" transform="translate(0.337891 0.783203)"/>
</clipPath>
</defs>
</svg>
