<svg width="555" height="192" viewBox="0 0 555 192" fill="none" xmlns="http://www.w3.org/2000/svg">
<g clip-path="url(#clip0_0_27)">
<g clip-path="url(#clip1_0_27)">
<g clip-path="url(#clip2_0_27)">
<path d="M45.2761 31.8361C47.1045 31.8361 47.1045 32.0659 48.9328 32.0659C50.7612 32.0659 50.7612 31.7236 52.5894 31.7236C54.4178 31.7236 54.4178 31.9338 56.2461 31.9338C58.0745 31.9338 58.0745 31.7921 59.9028 31.7921" stroke="#191919" stroke-width="1.29755" stroke-linecap="round" stroke-linejoin="round"/>
<path d="M71.4252 31.8995C73.2536 31.8995 73.2536 31.8604 75.0819 31.8604C76.9102 31.8604 76.9102 32.0804 78.7385 32.0804C80.5669 32.0804 80.5669 31.8311 82.3952 31.8311C84.2236 31.8311 84.2236 31.924 86.0519 31.924" stroke="#191919" stroke-width="1.29755" stroke-linecap="round" stroke-linejoin="round"/>
<path d="M66.2431 25.5297C66.2431 23.8383 66.0671 23.8383 66.0671 22.1468C66.0671 20.4554 66.2188 20.4554 66.2188 18.7688C66.2188 17.0823 66.1796 17.0774 66.1796 15.386C66.1796 13.6945 66.429 13.6945 66.429 12.003C66.429 10.3116 66.0867 10.3116 66.0867 8.62012" stroke="#191919" stroke-width="1.29755" stroke-linecap="round" stroke-linejoin="round"/>
<path d="M66.4877 61.5831C66.4877 59.7792 66.1601 59.7792 66.1601 57.9754C66.1601 56.1715 66.1063 56.1715 66.1063 54.3676C66.1063 52.5637 66.1552 52.5637 66.1552 50.7598C66.1552 48.9559 66.4241 48.9559 66.4241 47.152C66.4241 45.3481 66.4632 45.3481 66.4632 43.5442C66.4632 41.7403 66.3947 41.7403 66.3947 39.9315C66.3947 38.1227 66.0575 38.1276 66.0575 36.3188" stroke="#191919" stroke-width="1.29755" stroke-linecap="round" stroke-linejoin="round"/>
<path d="M66.0526 5.87763C66.0526 3.73642 66.0379 3.73642 66.0379 1.59033" stroke="#191919" stroke-width="1.29755" stroke-linecap="round" stroke-linejoin="round"/>
<path d="M469.064 161.86C471.316 161.86 471.316 161.824 473.567 161.824C475.819 161.824 475.819 162.094 478.071 162.094C480.323 162.094 480.323 161.757 482.574 161.757C484.827 161.757 484.827 161.824 487.079 161.824" stroke="#191919" stroke-width="1.29755" stroke-linecap="round" stroke-linejoin="round"/>
<path d="M479.149 177.58C480.57 176.16 480.63 176.226 482.05 174.805C483.472 173.384 483.67 173.583 485.092 172.161C486.512 170.741 486.313 170.542 487.735 169.121" stroke="#191919" stroke-width="1.29755" stroke-linecap="round" stroke-linejoin="round"/>
<path d="M505.653 151.527C506.905 150.276 506.839 150.203 508.091 148.945C509.344 147.693 509.416 147.758 510.668 146.506" stroke="#191919" stroke-width="1.29755" stroke-linecap="round" stroke-linejoin="round"/>
<path d="M480.528 148.62C481.949 150.04 482.184 149.805 483.598 151.221C485.02 152.641 484.779 152.883 486.199 154.303C487.621 155.724 487.561 155.784 488.981 157.205" stroke="#191919" stroke-width="1.29755" stroke-linecap="round" stroke-linejoin="round"/>
<path d="M506.828 174.871C508.08 176.124 508.188 176.021 509.441 177.274C510.693 178.526 510.886 178.34 512.137 179.591" stroke="#191919" stroke-width="1.29755" stroke-linecap="round" stroke-linejoin="round"/>
<path d="M505.509 173.492C503.919 171.903 503.787 172.029 502.191 170.439C500.596 168.85 500.65 168.796 499.054 167.207" stroke="#191919" stroke-width="1.29755" stroke-linecap="round" stroke-linejoin="round"/>
<path d="M501.276 161.926C503.528 161.926 503.528 161.824 505.779 161.824C508.031 161.824 508.031 162.155 510.283 162.155C512.535 162.155 512.535 162.155 514.786 162.155C517.039 162.155 517.039 162.167 519.291 162.167" stroke="#191919" stroke-width="1.29755" stroke-linecap="round" stroke-linejoin="round"/>
<path d="M494.846 154.219C494.846 152.136 494.96 152.136 494.96 150.053C494.96 147.969 494.846 147.969 494.846 145.892C494.846 143.815 495.129 143.809 495.129 141.726C495.129 139.643 494.707 139.643 494.707 137.559C494.707 135.476 494.966 135.476 494.966 133.393" stroke="#191919" stroke-width="1.29755" stroke-linecap="round" stroke-linejoin="round"/>
<path d="M494.816 189.965C494.816 187.72 495.123 187.72 495.123 185.474C495.123 183.228 494.701 183.228 494.701 180.982C494.701 178.737 494.93 178.737 494.93 176.491C494.93 174.244 494.882 174.245 494.882 171.998C494.882 169.753 495.153 169.753 495.153 167.507" stroke="#191919" stroke-width="1.29755" stroke-linecap="round" stroke-linejoin="round"/>
<path d="M1.245 92.946C3.07333 92.946 3.07332 92.9606 4.90165 92.9606C6.72999 92.9606 6.73 92.853 8.55833 92.853C10.3867 92.853 10.3867 93.0388 12.2149 93.0388C14.0433 93.0388 14.0433 92.853 15.8716 92.853" stroke="#191919" stroke-width="1.29755" stroke-linecap="round" stroke-linejoin="round"/>
<path d="M8.67079 100.704C8.67079 99.4721 8.67079 98.2402 8.67079 97.0082C8.67079 95.1604 8.48013 95.1604 8.48013 93.3125" stroke="#191919" stroke-width="1.29755" stroke-linecap="round" stroke-linejoin="round"/>
<path d="M8.46548 90.6975C8.46548 88.5562 8.50947 88.5562 8.50947 86.4102" stroke="#191919" stroke-width="1.29755" stroke-linecap="round" stroke-linejoin="round"/>
</g>
</g>
</g>
<defs>
<clipPath id="clip0_0_27">
<rect width="554" height="190.64" fill="white" transform="translate(0.337891 0.643066)"/>
</clipPath>
<clipPath id="clip1_0_27">
<rect width="554" height="190.64" fill="white" transform="translate(0.337891 0.643066)"/>
</clipPath>
<clipPath id="clip2_0_27">
<rect width="553.954" height="190.64" fill="white" transform="translate(0.360931 0.643066)"/>
</clipPath>
</defs>
</svg>
