<svg width="49" height="49" viewBox="0 0 49 49" fill="none" xmlns="http://www.w3.org/2000/svg">
<g clip-path="url(#clip0_0_177)">
<path d="M37.3379 0.783203H11.3379C5.26276 0.783203 0.337891 5.70807 0.337891 11.7832V37.7832C0.337891 43.8583 5.26276 48.7832 11.3379 48.7832H37.3379C43.413 48.7832 48.3379 43.8583 48.3379 37.7832V11.7832C48.3379 5.70807 43.413 0.783203 37.3379 0.783203Z" fill="#191919"/>
<path d="M36.3076 24.7835C36.3079 18.1835 30.9379 12.8135 24.3379 12.8135C17.7379 12.8135 12.3679 18.1835 12.3679 24.7835C12.3679 27.7535 13.474 30.71 15.6379 32.9735C16.1017 33.4361 16.7104 33.4607 17.1379 33.0335L23.1379 27.0335C23.5162 26.6552 24.1879 26.8535 24.1879 27.3935V35.7335C24.1879 36.3041 24.5773 36.6935 25.1479 36.6935C29.6779 36.6935 36.3076 32.4335 36.3076 24.7835ZM16.6171 29.9006C16.5646 29.9519 16.4917 29.9441 16.4512 29.8823C15.4678 28.3619 14.9479 26.6132 14.9479 24.7832C14.9479 19.5932 19.1479 15.3932 24.3379 15.3932C29.5279 15.3932 33.7279 19.5932 33.7279 24.7832C33.7279 26.6132 33.2125 28.3628 32.2279 29.8832C32.1865 29.9462 32.11 29.9528 32.0539 29.8988L25.0579 22.8932C24.6301 22.4654 24.0457 22.4654 23.6179 22.8932L16.6171 29.9006Z" fill="#F8F5E2"/>
</g>
<defs>
<clipPath id="clip0_0_177">
<rect width="48" height="48" fill="white" transform="translate(0.337891 0.783203)"/>
</clipPath>
</defs>
</svg>
