<svg width="31" height="31" viewBox="0 0 31 31" fill="none" xmlns="http://www.w3.org/2000/svg">
<path d="M29.3494 1.51097C30.068 2.20287 30.5405 3.11785 30.6504 4.11223C30.6504 4.52807 30.5405 4.80408 30.2911 5.32963C30.0417 5.85518 26.9672 11.1711 26.0523 12.6381C25.5267 13.4963 25.2506 14.5209 25.2506 15.5191C25.2506 16.5172 25.5267 17.5418 26.0523 18.4001C26.9672 19.867 30.0417 25.2132 30.2911 25.7387C30.5405 26.2643 30.6504 26.5138 30.6504 26.9297C30.5405 27.9279 30.098 28.8391 29.3762 29.5045C28.6838 30.2228 27.7689 30.6954 26.8009 30.7786C26.3853 30.7786 26.1091 30.669 25.6098 30.4194C25.1105 30.1699 19.6845 27.1793 18.2172 26.2643C18.1078 26.2076 17.9941 26.1244 17.8579 26.0714L10.602 21.7802C10.7682 23.164 11.3769 24.4949 12.3755 25.4627C12.568 25.6556 12.7648 25.8219 12.9841 25.9883C12.8179 26.0714 12.6248 26.1546 12.4586 26.2643C10.9913 27.1793 5.64453 30.2531 5.11899 30.5026C4.59344 30.7522 4.34351 30.8618 3.90109 30.8618C2.90305 30.7522 1.99195 30.3098 1.32641 29.5877C0.607811 28.8958 0.135313 27.9808 0.0253906 26.9864C0.0516406 26.5705 0.165389 26.1546 0.384686 25.7954C0.634061 25.2699 3.70859 19.9238 4.62351 18.4568C5.14906 17.5986 5.42523 16.6004 5.42523 15.5758C5.42523 14.5511 5.14906 13.553 4.62351 12.6948C3.70859 11.1711 0.607811 5.82871 0.384686 5.30316C0.161561 4.94397 0.0516406 4.52807 0.0253906 4.11223C0.135313 3.11407 0.577735 2.20287 1.29961 1.51097C1.99195 0.792611 2.90687 0.346465 3.90109 0.236816C4.31726 0.263285 4.73289 0.376707 5.11899 0.595998C5.56141 0.788826 9.46719 3.06113 11.5431 4.27859L12.0162 4.55454C12.1824 4.66419 12.3224 4.74737 12.4318 4.80408L12.6549 4.94397L20.0476 9.31848C19.8813 7.65866 19.0227 6.13496 17.6916 5.11033C17.8579 5.02715 18.0509 4.94397 18.2172 4.83432C19.6845 3.9194 25.0313 0.819074 25.5568 0.595998C25.9161 0.372928 26.3323 0.263285 26.7747 0.236816C27.7427 0.346465 28.6576 0.788826 29.3494 1.51097ZM15.7256 17.5154L17.3023 15.9387C17.5254 15.7157 17.5254 15.3868 17.3023 15.1636L15.7256 13.5871C15.5025 13.364 15.1733 13.364 14.9502 13.5871L13.3735 15.1636C13.1504 15.3868 13.1504 15.7157 13.3735 15.9387L14.9502 17.5154C15.1432 17.7082 15.5025 17.7082 15.7256 17.5154ZM29.3494 1.51097C30.068 2.20287 30.5405 3.11785 30.6504 4.11223C30.6504 4.52807 30.5405 4.80408 30.2911 5.32963C30.0417 5.85518 26.9672 11.1711 26.0523 12.6381C25.5267 13.4963 25.2506 14.5209 25.2506 15.5191C25.2506 16.5172 25.5267 17.5418 26.0523 18.4001C26.9672 19.867 30.0417 25.2132 30.2911 25.7387C30.5405 26.2643 30.6504 26.5138 30.6504 26.9297C30.5405 27.9279 30.098 28.8391 29.3762 29.5045C28.6838 30.2228 27.7689 30.6954 26.8009 30.7786C26.3853 30.7786 26.1091 30.669 25.6098 30.4194C25.1105 30.1699 19.6845 27.1793 18.2172 26.2643C18.1078 26.2076 17.9941 26.1244 17.8579 26.0714L10.602 21.7802C10.7682 23.164 11.3769 24.4949 12.3755 25.4627C12.568 25.6556 12.7648 25.8219 12.9841 25.9883C12.8179 26.0714 12.6248 26.1546 12.4586 26.2643C10.9913 27.1793 5.64453 30.2531 5.11899 30.5026C4.59344 30.7522 4.34351 30.8618 3.90109 30.8618C2.90305 30.7522 1.99195 30.3098 1.32641 29.5877C0.607811 28.8958 0.135313 27.9808 0.0253906 26.9864C0.0516406 26.5705 0.165389 26.1546 0.384686 25.7954C0.634061 25.2699 3.70859 19.9238 4.62351 18.4568C5.14906 17.5986 5.42523 16.6004 5.42523 15.5758C5.42523 14.5511 5.14906 13.553 4.62351 12.6948C3.70859 11.1711 0.607811 5.82871 0.384686 5.30316C0.161561 4.94397 0.0516406 4.52807 0.0253906 4.11223C0.135313 3.11407 0.577735 2.20287 1.29961 1.51097C1.99195 0.792611 2.90687 0.346465 3.90109 0.236816C4.31726 0.263285 4.73289 0.376707 5.11899 0.595998C5.56141 0.788826 9.46719 3.06113 11.5431 4.27859L12.0162 4.55454C12.1824 4.66419 12.3224 4.74737 12.4318 4.80408L12.6549 4.94397L20.0476 9.31848C19.8813 7.65866 19.0227 6.13496 17.6916 5.11033C17.8579 5.02715 18.0509 4.94397 18.2172 4.83432C19.6845 3.9194 25.0313 0.819074 25.5568 0.595998C25.9161 0.372928 26.3323 0.263285 26.7747 0.236816C27.7427 0.346465 28.6576 0.788826 29.3494 1.51097ZM15.7256 17.5154L17.3023 15.9387C17.5254 15.7157 17.5254 15.3868 17.3023 15.1636L15.7256 13.5871C15.5025 13.364 15.1733 13.364 14.9502 13.5871L13.3735 15.1636C13.1504 15.3868 13.1504 15.7157 13.3735 15.9387L14.9502 17.5154C15.1432 17.7082 15.5025 17.7082 15.7256 17.5154Z" fill="#FF694A"/>
</svg>
