<svg width="49" height="49" viewBox="0 0 49 49" fill="none" xmlns="http://www.w3.org/2000/svg">
<path d="M46.4057 2.37444C47.5378 3.46442 48.2821 4.90584 48.4553 6.47235C48.4553 7.12745 48.2821 7.56226 47.8893 8.39018C47.4964 9.21811 42.6529 17.5925 41.2116 19.9036C40.3837 21.2557 39.9486 22.8697 39.9486 24.4422C39.9486 26.0146 40.3837 27.6288 41.2116 28.9809C42.6529 31.2918 47.4964 39.7139 47.8893 40.5418C48.2821 41.3697 48.4553 41.7628 48.4553 42.418C48.2821 43.9905 47.5851 45.426 46.4479 46.4743C45.3572 47.6059 43.9159 48.3504 42.391 48.4814C41.7363 48.4814 41.3012 48.3087 40.5146 47.9156C39.728 47.5226 31.18 42.8111 28.8685 41.3697C28.6962 41.2804 28.517 41.1494 28.3025 41.066L16.8718 34.3057C17.1337 36.4857 18.0926 38.5823 19.6657 40.107C19.969 40.4108 20.2791 40.6728 20.6246 40.9349C20.3627 41.066 20.0586 41.197 19.7967 41.3697C17.4852 42.8111 9.06212 47.6536 8.23419 48.0466C7.40627 48.4397 7.01255 48.6125 6.31558 48.6125C4.7433 48.4397 3.308 47.7429 2.25952 46.6053C1.12748 45.5153 0.383127 44.0739 0.209961 42.5074C0.251314 41.8522 0.430509 41.197 0.77598 40.6311C1.16883 39.8032 6.01232 31.3811 7.45365 29.0702C8.28157 27.7181 8.71664 26.1457 8.71664 24.5315C8.71664 22.9174 8.28157 21.345 7.45365 19.9929C6.01232 17.5925 1.12748 9.17641 0.77598 8.34849C0.424478 7.78264 0.251314 7.12745 0.209961 6.47235C0.383127 4.89989 1.0801 3.46442 2.21731 2.37444C3.308 1.24276 4.74933 0.539923 6.31558 0.367188C6.9712 0.408885 7.62596 0.587565 8.23419 0.933027C8.93117 1.2368 15.0842 4.81648 18.3545 6.73442L19.0997 7.16915C19.3616 7.34188 19.5822 7.47292 19.7545 7.56226L20.106 7.78264L31.7521 14.6741C31.4902 12.0592 30.1376 9.65886 28.0406 8.04471C28.3025 7.91368 28.6066 7.78264 28.8685 7.6099C31.18 6.16857 39.6031 1.28445 40.431 0.933027C40.9971 0.581612 41.6527 0.408885 42.3497 0.367188C43.8745 0.539923 45.3159 1.2368 46.4057 2.37444ZM24.9434 27.5871L27.4272 25.1033C27.7787 24.7519 27.7787 24.2338 27.4272 23.8823L24.9434 21.3986C24.5919 21.0472 24.0733 21.0472 23.7218 21.3986L21.238 23.8823C20.8865 24.2338 20.8865 24.7519 21.238 25.1033L23.7218 27.5871C24.0259 27.8909 24.5919 27.8909 24.9434 27.5871ZM46.4057 2.37444C47.5378 3.46442 48.2821 4.90584 48.4553 6.47235C48.4553 7.12745 48.2821 7.56226 47.8893 8.39018C47.4964 9.21811 42.6529 17.5925 41.2116 19.9036C40.3837 21.2557 39.9486 22.8697 39.9486 24.4422C39.9486 26.0146 40.3837 27.6288 41.2116 28.9809C42.6529 31.2918 47.4964 39.7139 47.8893 40.5418C48.2821 41.3697 48.4553 41.7628 48.4553 42.418C48.2821 43.9905 47.5851 45.426 46.4479 46.4743C45.3572 47.6059 43.9159 48.3504 42.391 48.4814C41.7363 48.4814 41.3012 48.3087 40.5146 47.9156C39.728 47.5226 31.18 42.8111 28.8685 41.3697C28.6962 41.2804 28.517 41.1494 28.3025 41.066L16.8718 34.3057C17.1337 36.4857 18.0926 38.5823 19.6657 40.107C19.969 40.4108 20.2791 40.6728 20.6246 40.9349C20.3627 41.066 20.0586 41.197 19.7967 41.3697C17.4852 42.8111 9.06212 47.6536 8.23419 48.0466C7.40627 48.4397 7.01255 48.6125 6.31558 48.6125C4.7433 48.4397 3.308 47.7429 2.25952 46.6053C1.12748 45.5153 0.383127 44.0739 0.209961 42.5074C0.251314 41.8522 0.430509 41.197 0.77598 40.6311C1.16883 39.8032 6.01232 31.3811 7.45365 29.0702C8.28157 27.7181 8.71664 26.1457 8.71664 24.5315C8.71664 22.9174 8.28157 21.345 7.45365 19.9929C6.01232 17.5925 1.12748 9.17641 0.77598 8.34849C0.424478 7.78264 0.251314 7.12745 0.209961 6.47235C0.383127 4.89989 1.0801 3.46442 2.21731 2.37444C3.308 1.24276 4.74933 0.539923 6.31558 0.367188C6.9712 0.408885 7.62596 0.587565 8.23419 0.933027C8.93117 1.2368 15.0842 4.81648 18.3545 6.73442L19.0997 7.16915C19.3616 7.34188 19.5822 7.47292 19.7545 7.56226L20.106 7.78264L31.7521 14.6741C31.4902 12.0592 30.1376 9.65886 28.0406 8.04471C28.3025 7.91368 28.6066 7.78264 28.8685 7.6099C31.18 6.16857 39.6031 1.28445 40.431 0.933027C40.9971 0.581612 41.6527 0.408885 42.3497 0.367188C43.8745 0.539923 45.3159 1.2368 46.4057 2.37444ZM24.9434 27.5871L27.4272 25.1033C27.7787 24.7519 27.7787 24.2338 27.4272 23.8823L24.9434 21.3986C24.5919 21.0472 24.0733 21.0472 23.7218 21.3986L21.238 23.8823C20.8865 24.2338 20.8865 24.7519 21.238 25.1033L23.7218 27.5871C24.0259 27.8909 24.5919 27.8909 24.9434 27.5871Z" fill="#FF694A"/>
</svg>
